<svg width="427" height="164" viewBox="0 0 427 164" fill="none" xmlns="http://www.w3.org/2000/svg">
<path d="M0.397736 62H7.79546V34.6761H40.3693V62H47.7671V0.909058H40.3693V28.1136H7.79546V0.909058H0.397736V62Z" fill="black"/>
<path d="M76.6331 62.9545C85.9399 62.9545 92.7411 58.3011 94.8888 51.3807L88.0876 49.4716C86.2979 54.2443 82.1516 56.6307 76.6331 56.6307C68.3703 56.6307 62.6729 51.2912 62.3447 41.4772H95.6047V38.4943C95.6047 21.4318 85.4627 15.5852 75.9172 15.5852C63.5081 15.5852 55.2752 25.3693 55.2752 39.4488C55.2752 53.5284 63.3888 62.9545 76.6331 62.9545ZM62.3447 35.392C62.822 28.2628 67.8632 21.9091 75.9172 21.9091C83.5536 21.9091 88.4456 27.6363 88.4456 35.392H62.3447Z" fill="black"/>
<path d="M115.596 63.0738C123.591 63.0738 127.767 58.7784 129.199 55.7954H129.557V62H136.596V31.8125C136.596 17.2556 125.5 15.5852 119.653 15.5852C112.733 15.5852 104.858 17.9716 101.278 26.3238L107.96 28.7102C109.511 25.3693 113.18 21.7897 119.892 21.7897C126.425 21.7897 129.557 25.2798 129.557 31.2159C129.557 34.6164 126.096 34.4375 117.744 35.5113C109.243 36.615 99.9658 38.4943 99.9658 48.9943C99.9658 57.9431 106.886 63.0738 115.596 63.0738ZM116.67 56.75C111.062 56.75 107.006 54.2443 107.006 49.3522C107.006 43.9829 111.898 42.3125 117.386 41.5966C120.369 41.2386 128.363 40.4034 129.557 38.9716V45.4147C129.557 51.142 125.023 56.75 116.67 56.75Z" fill="black"/>
<path d="M145.246 62H152.285V33.0056C152.285 26.8309 157.177 22.267 163.859 22.267C165.619 22.267 166.932 22.5951 167.916 23.1022L170.302 17.1363C168.871 16.1221 166.991 15.4659 164.456 15.4659C158.907 15.4659 154.165 18.5681 152.524 23.1022H152.047V16.1818H145.246V62Z" fill="black"/>
<path d="M196.081 16.1818H186.297V5.20451H179.257V16.1818H172.337V22.1477H179.257V50.7841C179.257 58.7784 185.7 62.5966 191.666 62.5966C194.291 62.5966 195.962 62.1193 196.916 61.7613L195.484 55.4375C194.888 55.5568 193.933 55.7954 192.382 55.7954C189.28 55.7954 186.297 54.8409 186.297 48.875V22.1477H196.081V16.1818Z" fill="black"/>
<path d="M269.45 21.4787H281.83C281.651 10.5909 272.702 3.07385 259.099 3.07385C245.706 3.07385 235.892 10.4716 235.952 21.5682C235.922 30.5767 242.276 35.7372 252.597 38.2131L259.249 39.8835C265.901 41.4943 269.599 43.4034 269.629 47.5199C269.599 51.9943 265.364 55.0369 258.801 55.0369C252.089 55.0369 247.257 51.9347 246.839 45.8196H234.341C234.669 59.0341 244.125 65.8651 258.95 65.8651C273.865 65.8651 282.635 58.7358 282.665 47.5497C282.635 37.3778 274.969 31.9787 264.349 29.5923L258.861 28.2798C253.551 27.0568 249.107 25.0881 249.196 20.7031C249.196 16.7656 252.686 13.8721 259.01 13.8721C265.185 13.8721 268.973 16.6761 269.45 21.4787Z" fill="black"/>
<path d="M295.992 82.8381C305.299 82.8381 310.817 77.5881 313.412 70.25L331.31 19.1818H317.857L308.281 52.8295H307.804L298.318 19.1818H284.955L301.451 66.3722L300.556 68.5199C298.706 72.6662 295.693 72.9645 291.219 71.5923L288.355 81.4361C289.787 82.0625 292.382 82.8381 295.992 82.8381Z" fill="black"/>
<path d="M348 38.5114C348.03 32.6051 351.55 29.1449 356.681 29.1449C361.781 29.1449 364.854 32.4858 364.824 38.0937V65H377.531V35.8267C377.531 25.1477 371.267 18.5852 361.722 18.5852C354.921 18.5852 349.999 21.9261 347.94 27.2656H347.404V19.1818H335.293V65H348V38.5114Z" fill="black"/>
<path d="M405.878 65.8949C418.078 65.8949 425.744 58.7358 426.311 48.206H414.349C413.603 53.098 410.382 55.8423 406.027 55.8423C400.091 55.8423 396.243 50.8608 396.243 42.0909C396.243 33.4403 400.12 28.4886 406.027 28.4886C410.68 28.4886 413.633 31.5611 414.349 36.125H426.311C425.804 25.5355 417.779 18.5852 405.818 18.5852C391.917 18.5852 383.326 28.2202 383.326 42.2699C383.326 56.2003 391.768 65.8949 405.878 65.8949Z" fill="black"/>
<path fill-rule="evenodd" clip-rule="evenodd" d="M193.423 94.9556L192 96.379L187.584 91.963C182.942 87.321 176.858 85 170.774 85C164.689 85 158.605 87.321 153.963 91.963C144.679 101.247 144.679 116.3 153.963 125.584L192 163.621L213 142.621L234 163.621L272.037 125.584C281.321 116.3 281.321 101.247 272.037 91.963C267.395 87.321 261.311 85 255.226 85C249.142 85 243.058 87.321 238.416 91.963L234 96.379L232.577 94.9556C231.826 93.9067 230.979 92.9052 230.037 91.963C225.395 87.321 219.311 85 213.226 85C213.151 85 213.075 85.0004 213 85.0011C212.925 85.0004 212.849 85 212.774 85C206.689 85 200.605 87.321 195.963 91.963C195.021 92.9052 194.174 93.9067 193.423 94.9556ZM244.073 97.62L236.699 104.993C237.864 112.266 235.644 119.977 230.037 125.584L218.657 136.964L234 152.307L266.38 119.927C272.53 113.777 272.53 103.77 266.38 97.62C263.401 94.64 259.44 93 255.226 93C251.013 93 247.052 94.64 244.073 97.62Z" fill="black"/>
</svg>
